<svg xmlns="http://www.w3.org/2000/svg" viewBox="0 0 512 512">
  <defs>
    <linearGradient id="bg" x1="0%" y1="0%" x2="100%" y2="100%">
      <stop offset="0%" style="stop-color:#0C2C56"/>
      <stop offset="100%" style="stop-color:#005C5C"/>
    </linearGradient>
  </defs>
  <circle cx="256" cy="256" r="256" fill="url(#bg)"/>
  <g fill="#FFFFFF" transform="translate(156, 100)">
    <!-- Trident -->
    <path d="M100 0 L100 280 L120 300 L120 380 L80 380 L80 300 L100 280 L100 0 Z"/>
    <path d="M0 80 L0 200 L20 220 L20 180 L40 180 L40 80 L100 20 L100 0 L0 80 Z"/>
    <path d="M200 80 L200 200 L180 220 L180 180 L160 180 L160 80 L100 20 L100 0 L200 80 Z"/>
    <rect x="20" y="180" width="160" height="20" rx="5"/>
  </g>
  <text x="256" y="460" text-anchor="middle" fill="#C4CED4" font-family="system-ui, sans-serif" font-weight="bold" font-size="56">TF</text>
</svg>
